<svg version="1.1" id="prefix__Layer_1" xmlns="http://www.w3.org/2000/svg" x="0" y="0" viewBox="0 0 198.7 103.6" xml:space="preserve"><style>.prefix__st0{fill:#b11116}</style><g id="prefix__Symbols"><g id="prefix__Elements_x2F_Logos_x2F_BPI-Gold"><g id="prefix__BPI_logo"><path id="prefix__Shape" class="prefix__st0" d="M84.3 86.2V33.4h19.9c8 0 13.8 1.1 17.7 3.4 3.7 2.3 5.7 5.7 5.7 10.3 0 3-.9 5.7-2.8 7.6-2 2-4.6 3.4-8.5 4.3 4.3.7 7.6 2.3 9.6 4.4 2.1 2.1 3.2 5 3.2 8.5 0 4.8-1.8 8.5-5.1 10.8-3.4 2.5-8.5 3.5-15.4 3.5zm14.2-31.4h5.7c3.2 0 5.5-.5 6.9-1.4s2.1-2.5 2.1-4.6c0-2-.7-3.4-2.3-4.4-1.6-1.1-3.7-1.4-6.7-1.4h-5.7zm0 21.8h5.7c3.5 0 6.2-.5 7.6-1.6 1.6-1.1 2.3-2.7 2.3-5 0-2.1-.9-3.7-2.5-4.8s-4.1-1.6-7.6-1.6h-5.7v13z"/><path id="prefix__Shape_00000086652441292219714520000011635428530383875257_" class="prefix__st0" d="M133.9 86.2V33.4H158c6.9 0 12.1 1.4 15.6 4.3s5.3 7.1 5.3 12.6-1.8 9.6-5.3 12.6-8.3 4.6-14.7 4.6h-10.6v18.8h-14.4zm14.8-29.1h6.6c3.2 0 5.5-.5 6.9-1.8 1.4-1.1 2.3-2.8 2.3-5.3 0-2.3-.7-4.1-2.1-5.1-1.4-1.1-3.7-1.6-6.9-1.6h-6.6v13.8z"/><path id="prefix__Rectangle-path" class="prefix__st0" d="M184.1 33.4h14.6v52.8h-14.6z"/><path id="prefix__Shape_00000065788500064379163420000016348060582360499362_" d="M.7 78.4c.5 1.6 1.8 3 3.7 4.4 2.7 2.1 23.2 15.8 29.6 19.9l1.4.9 1.1-.7c1.1-.7 26.1-17.7 29.1-20 2-1.4 3-2.8 3.7-4.4.9-2.5.5-4.4.4-5.9-.2-.7-4.3-25.4-6.4-37.1-9.2-1.4-18.4-2.1-27.9-2.1h-.5v63.9C22.4 89.1 10.3 81.1 8.2 79.5c-1.2-.9-2-1.8-2.3-2.7a6 6 0 0 1-.2-3.5c.2-.7 4.6-27.1 6.7-38.3-2 .2-3.4.5-5.3.9C5 47.5.5 71.8.4 72.6 0 74-.4 75.9.7 78.4M17 44.9h2.3v1.9h2v-2h2.3v2h1.8v-2h2.3v5H17zm1.6 5.7h7.1l2.5 19.7H16.3zm-3.7 20.7h14.7v5h-3.9V75H19v1.2h-4.1zm5.7-9.9H24v-1.2h-3.4zm3.3-5.2h-3.4v1.2h3.4zm-3.3 9.1H24V64h-3.4zm-2.2-39.9c-1.4.2-2.3.4-3.5.7-.2 1.1-.5 3.2-.9 5 6.9-1.1 14.2-1.6 21.3-1.6 6.7 0 13.5.5 20 1.4-.4-1.6-.7-3.7-.9-4.8-.9-.4-2-.5-3.5-.7 4.6-1.1 7.5-4.3 7.5-7.5 0-4.1-3.2-7.5-11.4-8.2-2.8-2.3-6.7-3.2-10.3-3.5.9-.5 1.4-1.6 1.4-2.8 0-1.8-1.8-3.4-3.5-3.4C32.8 0 31 1.4 31 3.4c0 1.1.5 2.1 1.4 2.8-3.3.4-7.4 1.3-10.2 3.6-8 .7-11.2 4.1-11.2 8.2 0 3.1 2.8 6.3 7.4 7.4m30.4-13.2s6 .5 6 5.9c0 4.3-4.6 6.6-10.3 5.7 7.8-3 6.2-9.3 4.3-11.6m-12.3-3c5.1.5 9 3.7 9 7.6s-4.1 7.3-9.2 7.6c1.1-1.4 1.8-4.3 1.8-7.8-.1-3.1-.7-6-1.6-7.4m-3.7 0c-.9 1.6-1.6 4.3-1.6 7.5 0 3.4.7 6.4 1.8 7.8-5.1-.4-9.2-3.5-9.2-7.6s3.9-7.3 9-7.7m-12.2 3c-2 2.3-3.5 8.3 4.4 11.5-5.7.7-10.3-1.6-10.3-5.7-.3-5.1 5.9-5.8 5.9-5.8m30.1 68.2c0-.2.2-.5.2-.7.4 0 .7-.2 1.2-.2.7-.5.7-2 1.4-2.5.4-.2.5 0 .7.4.2-.5.2-1.2.4-2 .5-1.4 2-2.3 1.4-5l-.2-.2c-.2.4-.4.5-.5.9-2-.2-1.2-4.4.2-4.8.9 2.7 5 3.4 5.3-.2 0-.7-.5-1.6-1.2-2.7.4-1.1.7-2 1.1-2.5.2-.4-1.1.2-1.8 1.4.4-1.1.7-2.1 1.2-2.7.2-.4-.9.2-1.6 1.2.4-1.1.7-2.1 1.2-2.7.3-.1-1.2.6-1.7 1.9-.2-.7-.4-1.4-.4-2 0-1.6.5-4.8 1.2-7.5.2-.7.5-2.1 1.6-2.7-.9-.2-2.3.5-2.3 2.1-.2-2.3-2-3.2-2.8-3.4 2.8 2.7.5 8.5.5 11.2 0 3.5 4.3 7.1 3.5 8.3-.9 1.8-2.7-1.6-3.2-2.8-.5-1.1-2.5-2.8-3.9-4.3.9-.5 1.8-2.1 1.8-3.5.2.2.4.4.4.5h.2c-.2-1.4.4-3-.2-4.3h.7c-.2-6.4-4.8-5.1-7.1-4.6 0 .2-.2.2-.2.4h.9c-.2 0-.5.2-.7.2-.2.4 0 1.4.5 2 .2-.5.2-.7.7-.9.5.4.9 1.2.5 2.1-.4.2-.7 0-.9-.4-.2.9-.2 2 .5 2.5 0-.9.4-1.2 1.1-1.1-.2 2-1.6 1.4-2.8 2-2.5.9-3 4.6-5.3 5.1.2.9 1.1 1.6 1.6 2-.4.5-1.6 2.5-2.3 2.5-.2-.4-.4-.7-.9-.7-.4.2-.7.2-1.1.4 0 .2-.2.4-.2.4.2 0 .4 0 .5.2v.7c.4 0 .7 0 1.1.2v.2c-.4 0-.7-.2-1.1-.2-.2.2-.7 1.1-.7 1.6v.2l.4-.4c.2 0 .2.2.4.4 0 0 .2 0 .2.2l.9-.9s0 .2.2.2c-.2.4-.5.5-.7.9 0 .5-.2 1.1 0 1.6l.5-.5c.7.7 1.1-.2 1.6-.9.2.2.5.2.9.4v.5c1.1-1.1-.4-2.1 1.1-3.4.7.4 1.1.4 1.8 0 .2-.2.2-.4.4-.5-.4-.2-.5-.4-.7-.7 0-.2 0-.4.2-.4.4-.5 1.2-.5 1.8-.4 1.4.5 2.3 2 3.4 3-.2 1.4-.2 3 0 4.3.4 1.2 1.2 1.8.9 3.4.5 0 .9-.4 1.1-.7h.7c-.5 1.1-1.6 3-2.7 3.4s-1.4-.9-2.3-.7l-.4.4c-.4.2-.5 0-.9.5v.2h.5c0 .2.2.4.2.7.2-.4.5-.5.7-.9v.2c-.4.4-.7.9-.9 1.4v1.1h.2l.4-.5h.2c0 .2.2.2.2.4h.2c.2-.5.2-.9.4-1.4 0 0 .2 0 .2-.2-.2.7-.4 1.6-.2 2.5l.2.2c0-.2.2-.4.2-.4-.5.4-.5.2-.2.4 0-.7-.2-1.2.4-1.6-.4.5-.2 1.6 0 2.3-.3-.3-.1-.1 0-.1m-.9-31.8v-.7c.5 0 1.2 0 1.6.2-.5 0-1 .2-1.6.5m1.1 23.8c-.5-.5-2.5-2.8-2-4.3.2-.7.9-.5 1.4-.2 0-.4 0-.9.2-1.2-.4-.5-1.2-.9-.9-1.8-2.5-2-2.3 1.4-4.3 1.2 0 .7.5 1.2 1.1 1.4 0 1.6.5 2.7 1.2 3.2v.3c-.9.2-2.1.2-2.7-.4-.7-.7-.9-1.6-2.1-1.6 0 .2.2.2.2.4s0 .4-.2.5c.2 0 .5.2.7.2h.2v.5c-.7-.2-1.6-.2-1.8.7h.5c.2.2.2.4.4.9.4-.4.5-.7.9-.9-.2.9-.9 1.1-.9 2.1.2 0 .4-.2.5-.4l.5.5c.2-.2.4-.7.4-1.1h.2c-.2.7-.5 1.4-.2 2.1 0 .2.2.2.2.4 0-.2.2-.4.2-.5.4-.2.5.2.9 0 .5-.2.5-1.1 1.4-1.1.2.2.4.4.4.9.5-.2.7-.7 1.1-.9 1.1-.4 1.4.3 2.5-.9M47 51.8c1.1-.2 1.4-1.2 2.5-1.2-.2 0-.5-.2-.7 0-.5.2-2.8 1.4-2-.5-.9-.1-1.2 1.9.2 1.7m-7.3 5.1c.2.4.9.4 1.2.4.2-.2.4-.5.5-.7h.2c.5.7 1.1 1.4 1.6 2h.2c.5-.5.9-1.2 1.2-1.8-.2-1.1-1.2-1.4-1.6-2.3-.4-1.1.7-2.5-.7-3.4 0 .5-.2.7-.4 1.1 0 .4 0 .7.2.9v.2c-.1-.3-.1-.6-.2-1-.2-.4-.9-.9-1.4-.9.2.4 0 .7.2 1.1s.4.7.5 1.1v.2H41c-.2-.2-.4-.5-.7-.7-.4-.2-.9 0-1.2.2.2.2.4.4.4.5.2.1 1.7 1.9.2 3.1M49 43.6c.5-.4 1.1-.5 1.6-.5-.2-.2-.2-.2-.2-.4 0-.4.4-.5.5-.5.4 0 .5.2.5.5 0 .2 0 .4-.2.4.5 0 1.1.2 1.6.5 1.2.2 1.8.7 1.8 1.2s-.5 1.1-1.4 1.2v.5c-.5-.2-1.4-.2-2.3-.2-.7 0-1.8.2-2.3.2V46c-.9-.2-1.4-.7-1.4-1.2s.5-1 1.8-1.2m4.9 1.5c0-.7-.9-.9-.9-.9.4.4.5 1.1-.7 1.6 1.1.1 1.6-.2 1.6-.7m-1.4-.2c0-.5-.7-1.1-1.4-1.1.2.2.2.5.2 1.1 0 .5-.2.9-.4 1.1 1.1-.2 1.6-.6 1.6-1.1m-1.9 1c-.2-.2-.4-.5-.4-1.1 0-.4.2-.9.2-1.1-.9 0-1.4.5-1.4 1.1.1.6.8 1 1.6 1.1m-1.3-.1c-1.2-.5-.9-1.2-.7-1.6 0 0-.9 0-.9.9 0 .5.7.8 1.6.7" fill-rule="evenodd" clip-rule="evenodd" fill="#dcb91c"/></g></g></g></svg>