<svg xmlns="http://www.w3.org/2000/svg" viewBox="6 -3 108 24" fill="none"><g clip-path="url(#a)" fill="#00b463"><path d="M37.42 0c-1.92 0-3.76.75-5.14 2.1L33 3.5l-.3.25A7.5 7.5 0 0 0 26.33.03C22.28.03 19 3.58 19 7.73v8.95a.54.54 0 0 0 .57.57h2.94a.54.54 0 0 0 .54-.54V7.64c0-2.06 1.26-3.73 3.39-3.73 1.99 0 3.41 1.5 3.41 3.7v7.45a.54.54 0 0 0 .54.58h2.8a.54.54 0 0 0 .55-.58V7.6a3.45 3.45 0 0 1 3.48-3.69c2.13 0 3.31 1.7 3.31 3.73v9.06a.57.57 0 0 0 .58.54H44a.54.54 0 0 0 .58-.57V7.72c0-4.17-3.15-7.72-7.17-7.72m26.32.34h-2.67a.54.54 0 0 0-.57.54v.36l.94 1.5-.26.25a8.46 8.46 0 0 0-12.55-.4 8.79 8.79 0 0 0 6.22 15 8.5 8.5 0 0 0 6.37-2.99l.22.18-.94 1.55v.34a.57.57 0 0 0 .57.58h2.67a.55.55 0 0 0 .57-.58V.87a.52.52 0 0 0-.57-.53m-8.9 13.45a5 5 0 1 1 0-10 5 5 0 0 1 0 10M101.89.34h-2.67a.54.54 0 0 0-.57.54v.36l.94 1.5-.26.25a8.46 8.46 0 0 0-12.55-.4 8.79 8.79 0 0 0 6.22 15 8.5 8.5 0 0 0 6.37-2.99l.22.18-.94 1.55v.34a.57.57 0 0 0 .57.58h2.67a.55.55 0 0 0 .57-.58V.87a.5.5 0 0 0-.16-.4.5.5 0 0 0-.41-.13m-8.9 13.45a5 5 0 1 1 0-10 5 5 0 0 1 0 10M82.02.34h-2.7c-.44 0-.68.23-.68.46v8.26a4.1 4.1 0 0 1-4.3 4.36c-2.4 0-3.94-1.8-3.94-4.36V.8c0-.23-.37-.46-.61-.46H66.8a.5.5 0 0 0-.47.46V9a8.1 8.1 0 0 0 7.97 8.2 8.4 8.4 0 0 0 5.56-2.1l.16.14-1.22 1.66v.66c0 1.7-2.54 2.64-4.02 2.64h-.95a.57.57 0 0 0-.6.54v2.7a.6.6 0 0 0 .6.55h.95c4.52 0 7.84-2.64 7.84-7.61V.8a.55.55 0 0 0-.61-.46"/></g><defs><clipPath id="a"><path fill="#fff" d="M19 0h83.47v24H19z"/></clipPath></defs></svg>