<svg xmlns="http://www.w3.org/2000/svg" viewBox="0 0 80 16" fill="none"><path d="M29.62 1.08q-1.7.19-3.16 1.1-.9.66-1.58 1.55a7 7 0 0 0-1.22 3.59 6.8 6.8 0 0 0 1.2 4.59 6.7 6.7 0 0 0 5.93 2.58 9 9 0 0 0 1.56-.2q.55.36.98.84l.9.87h2.2c1.93 0 2.2-.01 2.14-.07-.03-.04-.8-.75-1.73-1.58l-1.68-1.5.3-.31a6.4 6.4 0 0 0 1.7-3.26q.22-1.3.1-2.6a6.2 6.2 0 0 0-3.72-5.11 8.4 8.4 0 0 0-3.92-.49m1.87 2.6a3.4 3.4 0 0 1 2.41 2.98q.21 1.47-.15 2.9c-.26.87-.86 1.6-1.65 2.03q-.77.38-1.63.34a3 3 0 0 1-2.26-.83 4 4 0 0 1-1.23-2.74 5.6 5.6 0 0 1 .45-2.86 3.3 3.3 0 0 1 2.49-1.9 5 5 0 0 1 1.57.07m7.69 4.09v6.51h3.14V9.25l.59.02c1.15.05 1.17.07 3.61 3.84l.75 1.16h3.6l-.08-.13c-.25-.39-2.74-4-2.92-4.24a4.5 4.5 0 0 0-1.55-1.37c-.2-.08-.26-.16-.11-.16q.74-.21 1.38-.62a3.7 3.7 0 0 0 1.5-1.93q.15-.52.1-1.07.06-.58-.13-1.13a3.2 3.2 0 0 0-2.37-2.06c-.92-.26-1-.26-4.38-.28l-3.13-.02zm5.4-4.23q.58.12.98.53.4.48.35 1.11.03.38-.15.73a2 2 0 0 1-1.49 1.11q-.56.06-1.11.06h-.84V3.46h.98q.64-.03 1.29.07" fill="#d01f2e"/><path d="M54.05 7.76v6.51h3.14v-4.5h1.11a6.7 6.7 0 0 0 4.17-.99q.67-.5 1.16-1.17c.51-.83.72-1.8.6-2.77a4 4 0 0 0-.38-1.4 3.9 3.9 0 0 0-3.03-2.05 20 20 0 0 0-3.62-.11l-3.15-.02zm5.43-4.14q.53.14.94.5a2.2 2.2 0 0 1-.01 2.81c-.48.46-1.01.6-2.3.6h-.92V3.5l1.02.02q.64 0 1.27.1m8.77-2.3h-2.83v13.16h2.85V9.22c0-.46.17-1.77 1.74-1.77 1.26 0 1.54 1.15 1.53 1.73v5.21h2.9V8.56c0-2-1.5-3.2-3.15-3.2-1.32 0-2.56 1.05-3.02 1.57z" fill="#1f4288"/><path d="M13.42 11a3.5 3.5 0 0 0 3.53-3.5c0-1.93-1.58-3.5-3.53-3.5A3.5 3.5 0 0 0 9.9 7.5c0 1.93 1.58 3.5 3.52 3.5" fill="#ff0"/><path d="M15.94 1.32 13.98 0H9.42a3.5 3.5 0 0 0-3.48 3.46v6.01H8.6V3.42a.8.8 0 0 1 .78-.78h4.6z" fill="#1f4288"/><path d="m10.94 13.65 1.97 1.32h4.55a3.5 3.5 0 0 0 3.48-3.46V5.5h-2.66v6.05a.8.8 0 0 1-.78.77h-4.6z" fill="#d01f2e"/></svg>