<svg xmlns="http://www.w3.org/2000/svg" fill="none" viewBox="0 0 69 28"><g clip-path="url(#a)"><path fill="#ee4d2d" fill-rule="evenodd" d="M30.56 21.87V5.34a.6.6 0 0 1 .62-.62h5.57c3.14.04 5.69 2.6 5.69 5.7s-2.55 5.67-5.7 5.7h-4.02v5.75a.6.6 0 0 1-.62.62h-.91a.6.6 0 0 1-.63-.62m2.16-7.99h4a3.5 3.5 0 0 0 2.49-1.02 3.5 3.5 0 0 0 1.03-2.48 3.5 3.5 0 0 0-1.03-2.47 3.5 3.5 0 0 0-2.47-1.03h-4.02zm23.91 13.56 4.22-7.26-5.05-8.28a.37.37 0 0 1 .32-.56h2.04l4.06 6.6 3.92-6.6h1.89a.37.37 0 0 1 .32.56L58.85 28h-1.9a.37.37 0 0 1-.32-.56m-4.74-5.66v-.95l-.31.26a5.7 5.7 0 0 1-3.65 1.31 5.6 5.6 0 0 1-5.61-5.53c0-3 2.51-5.45 5.6-5.45a5.7 5.7 0 0 1 3.66 1.32l.31.26v-.96a.6.6 0 0 1 .62-.62h1.29V22.4h-1.3a.6.6 0 0 1-.62-.62m-3.98-8.3a3.47 3.47 0 0 0-3.53 3.4 3.55 3.55 0 0 0 3.53 3.47c1.9 0 3.53-1.59 3.53-3.47 0-1.87-1.59-3.4-3.53-3.4" clip-rule="evenodd"/><path fill="#ee4d2d" d="M22.24 4.69H3.57a1.03 1.03 0 0 1-1.03-1.03.47.47 0 0 1 .47-.47h16.73a.47.47 0 0 0 .47-.47V1.03a1 1 0 0 0-.7-.97 1 1 0 0 0-.42-.05L2.14 1.5A2.34 2.34 0 0 0 0 3.83v16.32a2.34 2.34 0 0 0 2.34 2.35h19.9a2.34 2.34 0 0 0 2.34-2.35V7.03a2.4 2.4 0 0 0-1.45-2.16 2 2 0 0 0-.9-.18"/><path fill="#fff" d="M16.47 16.95a3.3 3.3 0 0 1-2.02 2.67 5 5 0 0 1-2.16.37 7 7 0 0 1-2.95-.76q-.63-.34-1.18-.81-.14-.09-.04-.24l.47-.7c.07-.11.2-.12.3-.03.02 0 .12.1.15.11.87.68 2 1.2 3.26 1.24 1.58-.02 2.72-.73 2.93-1.82.22-1.2-.73-2.23-2.58-2.8-.59-.2-2.06-.78-2.33-.94q-1.95-1.13-1.8-2.94c.13-1.68 1.69-2.94 3.68-2.95a7 7 0 0 1 2.61.53q.54.23 1.02.56c.14.1.13.2.07.3l-.4.64q-.1.15-.28.04a5.5 5.5 0 0 0-3-.93c-1.35.03-2.38.83-2.44 1.93-.02 1 .74 1.71 2.35 2.26 3.32 1.06 4.58 2.32 4.34 4.27"/></g><defs><clipPath id="a"><path fill="#fff" d="M0 0h68.4v28H0z"/></clipPath></defs></svg>